<svg width="100" height="100" viewBox="0 0 100 100" fill="none" xmlns="http://www.w3.org/2000/svg">
<circle cx="50" cy="50" r="50" fill="#2F3640"/>
<path d="M75.4494 25.0271C74.587 24.0129 73.3293 23.4315 71.9989 23.4315H67.632V22.0656C67.632 20.3752 66.2567 19 64.5665 19H34.9531C33.2627 19 31.8877 20.3752 31.8877 22.0654V23.4314H27.5204C26.1899 23.4314 24.9321 24.0129 24.0698 25.027C23.2163 26.0305 22.8474 27.3486 23.058 28.6432C24.2054 35.6989 28.6458 41.9322 34.9476 45.3512C35.5235 46.7357 36.1756 48.0469 36.9017 49.2686C39.2213 53.1718 42.105 55.8693 45.2791 57.1739C45.6007 60.4263 43.4366 63.5075 40.1773 64.2418C40.1703 64.2434 40.1654 64.2458 40.1586 64.2474C39.5225 64.3994 39.049 64.9702 39.049 65.6528V72.2889H36.3651C33.9723 72.2889 32.0256 74.2356 32.0256 76.6284V80.0535C32.0256 80.8524 32.6732 81.5 33.4722 81.5H66.1855C66.9844 81.5 67.632 80.8524 67.632 80.0535V76.6284C67.632 74.2356 65.6854 72.2889 63.2925 72.2889H60.6085V65.6529C60.6085 64.969 60.1332 64.3973 59.4954 64.2467C59.4894 64.2452 59.4837 64.2433 59.4777 64.2418C56.1938 63.5027 54.0256 60.3905 54.381 57.1136C57.4997 55.7879 60.3328 53.1144 62.6182 49.2689C63.3444 48.0471 63.9964 46.7357 64.5723 45.351C70.8739 41.9318 75.3139 35.6986 76.4614 28.6432C76.672 27.3486 76.3031 26.0307 75.4494 25.0271ZM25.9134 28.1787C25.8383 27.7164 25.9661 27.2627 26.2734 26.9011C26.5853 26.5344 27.0397 26.3242 27.5203 26.3242H31.8876V28.9856C31.8876 33.1587 32.4202 37.201 33.4296 40.8976C29.4628 37.763 26.7316 33.2094 25.9134 28.1787ZM63.2925 75.1821C64.0902 75.1821 64.7391 75.831 64.7391 76.6287V78.6072H34.9186V76.6287C34.9186 75.831 35.5675 75.1821 36.3651 75.1821H63.2925ZM57.7154 67.0995V72.289H41.9423V67.0995H57.7154ZM45.7359 64.2065C46.0934 63.813 46.4203 63.3863 46.7127 62.9297C47.6767 61.4234 48.1827 59.7122 48.2054 57.9646C48.7192 58.0345 49.2377 58.072 49.7607 58.072C50.3296 58.072 50.8934 58.0283 51.4516 57.9455C51.4845 60.294 52.3986 62.5171 53.9356 64.2064H45.7359V64.2065ZM64.7388 28.9857C64.7388 36.1121 63.1024 42.7906 60.131 47.7906C57.3 52.555 53.6169 55.1789 49.7604 55.1789C45.9034 55.1789 42.22 52.5551 39.3886 47.7908C36.4171 42.7907 34.7807 36.1122 34.7807 28.986V22.0654C34.7807 21.9702 34.858 21.8929 34.953 21.8929H64.5662C64.6614 21.8929 64.7388 21.9703 64.7388 22.0654V28.9857ZM73.6059 28.1787C72.7878 33.209 70.0568 37.7625 66.0902 40.8974C67.0994 37.2007 67.632 33.1587 67.632 28.9857V26.3244H71.9989C72.4796 26.3244 72.9339 26.5347 73.2457 26.9013C73.5531 27.2627 73.681 27.7164 73.6059 28.1787Z" fill="#FFD700"/>
<path d="M58.5416 33.8508C58.3713 33.3274 57.9186 32.9458 57.3738 32.8664L53.0088 32.2322L51.0568 28.2768C50.813 27.7832 50.3102 27.4706 49.7597 27.4706C49.209 27.4706 48.7062 27.7832 48.4626 28.2768L46.5105 32.2322L42.1455 32.8664C41.6006 32.9455 41.148 33.3273 40.9778 33.8509C40.8078 34.3747 40.9496 34.9494 41.3439 35.3338L44.5025 38.4126L43.7567 42.7599C43.6636 43.3026 43.8866 43.851 44.3322 44.1747C44.7775 44.4983 45.3682 44.5409 45.8555 44.2848L49.7597 42.2324L53.6637 44.2848C53.8754 44.396 54.1065 44.4508 54.3366 44.4508C54.6364 44.4508 54.935 44.3577 55.1869 44.1746C55.6325 43.8508 55.8555 43.3025 55.7624 42.7598L55.0167 38.4125L58.1752 35.3337C58.5698 34.9494 58.7116 34.3746 58.5416 33.8508ZM52.453 36.8717C52.1121 37.204 51.9565 37.6827 52.037 38.1521L52.4157 40.3603L50.4327 39.3177C50.2221 39.2069 49.9908 39.1517 49.7596 39.1517C49.5284 39.1517 49.2972 39.2071 49.0865 39.3177L47.1034 40.3603L47.4821 38.1521C47.5627 37.6828 47.407 37.2041 47.0661 36.8717L45.4619 35.308L47.679 34.9857C48.1501 34.9173 48.5574 34.6213 48.7681 34.1944L49.7597 32.1854L50.7511 34.1944C50.962 34.6213 51.3691 34.9172 51.8403 34.9857L54.0573 35.308L52.453 36.8717Z" fill="#FFD700"/>
</svg>
